<?xml version="1.0" encoding="utf-8"?>
<!-- Generator: Adobe Illustrator 26.4.1, SVG Export Plug-In . SVG Version: 6.00 Build 0)  -->
<svg version="1.1" id="Capa_1" xmlns="http://www.w3.org/2000/svg" xmlns:xlink="http://www.w3.org/1999/xlink" x="0px" y="0px"
	 viewBox="0 0 48 48" style="enable-background:new 0 0 48 48;" xml:space="preserve">
<style type="text/css">
	.st0{fill:#670570;}
	.st1{fill:#CDD8E8;}
</style>
<path class="st0" d="M24,4C13,4,4,13,4,24s9,20,20,20s20-9,20-20S35,4,24,4z"/>
<path class="st1" d="M26.7,29.3h5.2l0.8-5.3h-6v-2.9c0-2.2,0.7-4.1,2.8-4.1h3.3v-4.6c-0.6-0.1-1.8-0.2-4.1-0.2
	c-4.8,0-7.6,2.5-7.6,8.3V24h-4.9v5.3H21v14.5c1,0.1,2,0.2,3,0.2c0.9,0,1.8-0.1,2.7-0.2V29.3z"/>
</svg>
