<?xml version="1.0" encoding="utf-8"?>
<!-- Generator: Adobe Illustrator 26.4.1, SVG Export Plug-In . SVG Version: 6.00 Build 0)  -->
<svg version="1.1" id="Capa_1" xmlns="http://www.w3.org/2000/svg" xmlns:xlink="http://www.w3.org/1999/xlink" x="0px" y="0px"
	 viewBox="0 0 48 48" style="enable-background:new 0 0 48 48;" xml:space="preserve">
<style type="text/css">
	.st0{fill:url(#SVGID_1_);}
	.st1{fill:#670570;}
	.st2{fill:#CDD8E8;}
</style>
<radialGradient id="SVGID_1_" cx="19.38" cy="7.965" r="44.899" gradientTransform="matrix(1 0 0 -1 0 50)" gradientUnits="userSpaceOnUse">
	<stop  offset="0" style="stop-color:#FFDD55"/>
	<stop  offset="0.328" style="stop-color:#FF543F"/>
	<stop  offset="0.348" style="stop-color:#FC5245"/>
	<stop  offset="0.504" style="stop-color:#E64771"/>
	<stop  offset="0.643" style="stop-color:#D53E91"/>
	<stop  offset="0.761" style="stop-color:#CC39A4"/>
	<stop  offset="0.841" style="stop-color:#C837AB"/>
</radialGradient>
<path class="st0" d="M34,42l-20,0c-4.4,0-8-3.6-8-8l0-20c0-4.4,3.6-8,8-8l20,0c4.4,0,8,3.6,8,8l0,20C42,38.4,38.4,42,34,42z"/>
<path class="st1" d="M34,42l-20,0c-4.4,0-8-3.6-8-8l0-20c0-4.4,3.6-8,8-8l20,0c4.4,0,8,3.6,8,8l0,20C42,38.4,38.4,42,34,42z"/>
<path class="st2" d="M24,31c-3.9,0-7-3.1-7-7s3.1-7,7-7s7,3.1,7,7S27.9,31,24,31z M24,19c-2.8,0-5,2.2-5,5s2.2,5,5,5s5-2.2,5-5
	S26.8,19,24,19z"/>
<circle class="st2" cx="31.5" cy="16.5" r="1.5"/>
<path class="st2" d="M30,37H18c-3.9,0-7-3.1-7-7V18c0-3.9,3.1-7,7-7h12c3.9,0,7,3.1,7,7v12C37,33.9,33.9,37,30,37z M18,13
	c-2.8,0-5,2.2-5,5v12c0,2.8,2.2,5,5,5h12c2.8,0,5-2.2,5-5V18c0-2.8-2.2-5-5-5H18z"/>
</svg>
